<svg version="1.1" id="Layer_1" xmlns:x="ns_extend;" xmlns:i="ns_ai;" xmlns:graph="ns_graphs;" xmlns="http://www.w3.org/2000/svg" xmlns:xlink="http://www.w3.org/1999/xlink" x="0px" y="0px" viewBox="0 0 48.9 43.8" style="enable-background:new 0 0 48.9 43.8;" xml:space="preserve">
 <style type="text/css">
  .st0{fill:#FD366E;}
 </style>
 <metadata>
  <sfw xmlns="ns_sfw;">
   <slices>
   </slices>
   <sliceSourceBounds bottomLeftOrigin="true" height="43.8" width="48.9" x="-132" y="49.7">
   </sliceSourceBounds>
  </sfw>
 </metadata>
 <g>
  <path class="st0" d="M48.9,32.9v11H21.5c-8,0-14.9-4.4-18.7-11C1.2,30,0.2,26.7,0,23.4v-3c0.1-1.5,0.4-3,0.8-4.5
		C3.3,6.7,11.6,0,21.5,0c9.9,0,18.2,6.7,20.7,15.9H30.5c-1.9-3-5.2-5-9-5s-7.1,2-9,5c-0.6,0.9-1,1.9-1.3,3c-0.3,1-0.4,2-0.4,3
		c0,3,1.2,5.9,3.4,8c2,1.9,4.6,3,7.4,3H48.9L48.9,32.9z">
  </path>
  <path class="st0" d="M48.9,18.9v11h-20c2.2-2.1,3.4-5,3.4-8c0-1-0.1-2-0.4-3L48.9,18.9L48.9,18.9z">
  </path>
 </g>
</svg>